<svg xmlns="http://www.w3.org/2000/svg" viewBox="0 0 200 60" width="200" height="60">
  <style>
    .st0{fill:#4CAF50;}
    .st1{fill:#FFFFFF;}
  </style>
  <g>
    <path class="st0" d="M30,10c-11,0-20,9-20,20s9,20,20,20s20-9,20-20S41,10,30,10z M30,45c-8.3,0-15-6.7-15-15s6.7-15,15-15s15,6.7,15,15
      S38.3,45,30,45z"/>
    <path class="st1" d="M30,20c-5.5,0-10,4.5-10,10s4.5,10,10,10s10-4.5,10-10S35.5,20,30,20z M35,30h-5v5h-2v-5h-3v-2h3v-3h2v3h5V30z"/>
    <path class="st1" d="M65,25h-3v15h3V25z"/>
    <path class="st1" d="M75,25c-4.4,0-8,3.6-8,8s3.6,8,8,8s8-3.6,8-8S79.4,25,75,25z M75,38c-2.8,0-5-2.2-5-5s2.2-5,5-5s5,2.2,5,5
      S77.8,38,75,38z"/>
    <path class="st1" d="M95,25c-1.7,0-3.2,0.5-4.5,1.5V25h-3v15h3v-8c0-2.2,1.8-4,4-4h1.5v-3H95z"/>
    <path class="st1" d="M105,25c-4.4,0-8,3.6-8,8s3.6,8,8,8s8-3.6,8-8S109.4,25,105,25z M105,38c-2.8,0-5-2.2-5-5s2.2-5,5-5s5,2.2,5,5
      S107.8,38,105,38z"/>
    <path class="st1" d="M125,25c-1.7,0-3.2,0.5-4.5,1.5V25h-3v15h3v-8c0-2.2,1.8-4,4-4h1.5v-3H125z"/>
    <path class="st1" d="M140,25h-8v15h3v-5h5c2.8,0,5-2.2,5-5S142.8,25,140,25z M140,32h-5v-4h5c1.1,0,2,0.9,2,2S141.1,32,140,32z"/>
    <path class="st1" d="M155,25c-4.4,0-8,3.6-8,8s3.6,8,8,8s8-3.6,8-8S159.4,25,155,25z M155,38c-2.8,0-5-2.2-5-5s2.2-5,5-5s5,2.2,5,5
      S157.8,38,155,38z"/>
    <path class="st1" d="M175,25h-8v15h3v-5h5c2.8,0,5-2.2,5-5S177.8,25,175,25z M175,32h-5v-4h5c1.1,0,2,0.9,2,2S176.1,32,175,32z"/>
    <path class="st1" d="M65,20h3v3h-3V20z"/>
    <path class="st0" d="M185,25v2h5v13h3V27h5v-2H185z"/>
  </g>
</svg>